<svg
  xmlns="http://www.w3.org/2000/svg"
  width="1200"
  height="320"
  viewBox="0 0 1200 320"
  role="img"
  aria-label="GROUNDED wordmark"
>
  <title>GROUNDED wordmark</title>
  <g fill="#111">
    <path d="M122.074 174.584L122.074 170.536L171.846 170.536L171.846 174.584L160.714 174.584L160.714 194.640Q158.690 198.964 154.734 204.484Q150.778 210.004 144.660 215.110Q138.542 220.216 129.986 223.528Q121.430 226.840 110.206 226.840L110.206 226.840Q91.070 226.840 77.730 217.640Q64.390 208.440 57.398 192.432Q50.406 176.424 50.406 156L50.406 156Q50.406 140.636 54.868 127.710Q59.330 114.784 67.610 105.216Q75.890 95.648 87.390 90.404Q98.890 85.160 112.874 85.160L112.874 85.160Q121.982 85.160 130.308 88.334Q138.634 91.508 144.890 97.120L144.890 97.120L154.550 87L157.770 87L157.770 124.720L154.090 124.720Q153.722 116.532 150.410 110.046Q147.098 103.560 141.578 98.960Q136.058 94.360 129.158 91.922Q122.258 89.484 114.714 89.484L114.714 89.484Q102.754 89.484 94.428 95.096Q86.102 100.708 81.088 110.230Q76.074 119.752 73.774 131.620Q71.474 143.488 71.474 156L71.474 156Q71.474 168.512 73.176 180.472Q74.878 192.432 79.156 202.092Q83.434 211.752 90.978 217.456Q98.522 223.160 110.206 223.160L110.206 223.160Q118.762 223.160 124.512 220.492Q130.262 217.824 133.712 214.098Q137.162 210.372 139.002 206.922Q140.842 203.472 141.486 202L141.486 202L141.486 174.584L122.074 174.584Z M250.594 155.632L222.994 155.632L222.994 153.516L250.594 153.516Q259.426 153.516 265.636 149.882Q271.846 146.248 275.066 139.256Q278.286 132.264 278.286 122.236L278.286 122.236Q278.286 112.208 275.066 105.124Q271.846 98.040 265.636 94.314Q259.426 90.588 250.594 90.588L250.594 90.588L189.874 90.588L189.874 87L250.594 87Q264.486 87 274.836 90.818Q285.186 94.636 290.890 102.456Q296.594 110.276 296.594 122.236L296.594 122.236Q296.594 134.196 291.258 141.556Q285.922 148.916 275.664 152.274Q265.406 155.632 250.594 155.632L250.594 155.632ZM247.926 225L189.874 225L189.874 221.412L247.926 221.412L247.926 225ZM227.594 223.068L210.114 223.068L210.114 89.484L227.594 89.484L227.594 223.068ZM295.674 225.920L295.674 225.920Q287.670 225.920 283.208 223.022Q278.746 220.124 276.722 215.202Q274.698 210.280 274.192 204.162Q273.686 198.044 273.594 191.512Q273.502 184.980 272.858 178.862Q272.214 172.744 270.006 167.822Q267.798 162.900 262.968 160.002Q258.138 157.104 249.674 157.104L249.674 157.104L222.994 157.104L222.994 155.172L253.354 155.172Q266.510 155.172 274.284 158.760Q282.058 162.348 286.014 168.328Q289.970 174.308 291.350 181.392Q292.730 188.476 292.868 195.560Q293.006 202.644 293.328 208.624Q293.650 214.604 295.352 218.192Q297.054 221.780 301.654 221.780L301.654 221.780Q304.598 221.780 306.852 221.182Q309.106 220.584 310.946 219.664L310.946 219.664L312.234 223.068Q310.026 224.264 305.610 225.092Q301.194 225.920 295.674 225.920Z M394.018 226.840L394.018 226.840Q380.034 226.840 369.086 221.366Q358.138 215.892 350.548 206.140Q342.958 196.388 339.048 183.554Q335.138 170.720 335.138 156L335.138 156Q335.138 141.280 339.324 128.446Q343.510 115.612 351.238 105.860Q358.966 96.108 369.822 90.634Q380.678 85.160 394.018 85.160L394.018 85.160Q407.358 85.160 418.168 90.634Q428.978 96.108 436.752 105.860Q444.526 115.612 448.666 128.446Q452.806 141.280 452.806 156L452.806 156Q452.806 170.720 448.896 183.554Q444.986 196.388 437.442 206.140Q429.898 215.892 418.950 221.366Q408.002 226.840 394.018 226.840ZM394.018 223.528L394.018 223.528Q406.070 223.528 413.476 217.778Q420.882 212.028 424.884 202.322Q428.886 192.616 430.312 180.564Q431.738 168.512 431.738 156L431.738 156Q431.738 143.488 430.036 131.436Q428.334 119.384 424.194 109.678Q420.054 99.972 412.694 94.222Q405.334 88.472 394.018 88.472L394.018 88.472Q382.702 88.472 375.342 94.222Q367.982 99.972 363.796 109.678Q359.610 119.384 357.908 131.436Q356.206 143.488 356.206 156L356.206 156Q356.206 168.512 357.678 180.564Q359.150 192.616 363.106 202.322Q367.062 212.028 374.560 217.778Q382.058 223.528 394.018 223.528Z M560.442 87L598.254 87L598.254 90.588L580.866 90.588L580.866 182.680Q580.866 205.404 570.608 216.536Q560.350 227.668 538.546 227.668L538.546 227.668Q514.718 227.668 503.632 217.088Q492.546 206.508 492.546 182.680L492.546 182.680L492.546 90.588L476.078 90.588L476.078 87L528.518 87L528.518 90.588L510.118 90.588L510.118 180.840Q510.118 189.948 511.452 197.722Q512.786 205.496 516.236 211.246Q519.686 216.996 525.988 220.216Q532.290 223.436 542.226 223.436L542.226 223.436Q553.634 223.436 561.454 219.250Q569.274 215.064 573.322 206.094Q577.370 197.124 577.370 182.680L577.370 182.680L577.370 90.588L560.442 90.588L560.442 87Z M618.214 87L640.846 87L640.846 221.412L662.558 221.412L662.558 225L618.214 225L618.214 221.412L637.074 221.412L637.074 90.588L618.214 90.588L618.214 87ZM704.878 87L749.222 87L749.222 90.588L729.810 90.588L729.810 226.840L724.842 226.840L638.178 87L659.338 87L726.130 196.572L726.130 90.588L704.878 90.588L704.878 87Z M768.538 87L820.058 87Q840.574 87 855.386 96.062Q870.198 105.124 878.248 120.764Q886.298 136.404 886.298 156L886.298 156Q886.298 170.720 881.514 183.278Q876.730 195.836 867.898 205.220Q859.066 214.604 846.922 219.802Q834.778 225 820.058 225L820.058 225L768.538 225L768.538 221.412L785.098 221.412L785.098 90.588L768.538 90.588L768.538 87ZM802.670 90.588L802.670 221.412L820.058 221.412Q832.754 221.412 841.402 215.984Q850.050 210.556 855.294 201.264Q860.538 191.972 862.838 180.242Q865.138 168.512 865.138 156L865.138 156Q865.138 143.488 862.562 131.758Q859.986 120.028 854.604 110.736Q849.222 101.444 840.666 96.016Q832.110 90.588 820.058 90.588L820.058 90.588L802.670 90.588Z M1010.126 225L910.122 225L910.122 221.412L926.682 221.412L926.682 90.588L910.122 90.588L910.122 87L1008.286 87L1008.286 124.720L1004.698 124.720Q1004.698 114.876 1001.892 107.148Q999.086 99.420 992.692 95.004Q986.298 90.588 975.534 90.588L975.534 90.588L944.254 90.588L944.254 221.412L973.602 221.412Q986.206 221.412 993.382 216.812Q1000.558 212.212 1003.548 203.748Q1006.538 195.284 1006.538 183.600L1006.538 183.600L1010.126 183.600L1010.126 225ZM977.006 173.756L973.418 173.756Q973.418 167.592 971.072 163.544Q968.726 159.496 964.586 157.472Q960.446 155.448 955.202 155.448L955.202 155.448L939.838 155.448L939.838 151.860L955.202 151.860Q960.446 151.860 964.586 150.020Q968.726 148.180 971.072 144.316Q973.418 140.452 973.418 134.288L973.418 134.288L977.006 134.288L977.006 173.756Z M1031.926 87L1083.446 87Q1103.962 87 1118.774 96.062Q1133.586 105.124 1141.636 120.764Q1149.686 136.404 1149.686 156L1149.686 156Q1149.686 170.720 1144.902 183.278Q1140.118 195.836 1131.286 205.220Q1122.454 214.604 1110.310 219.802Q1098.166 225 1083.446 225L1083.446 225L1031.926 225L1031.926 221.412L1048.486 221.412L1048.486 90.588L1031.926 90.588L1031.926 87ZM1066.058 90.588L1066.058 221.412L1083.446 221.412Q1096.142 221.412 1104.790 215.984Q1113.438 210.556 1118.682 201.264Q1123.926 191.972 1126.226 180.242Q1128.526 168.512 1128.526 156L1128.526 156Q1128.526 143.488 1125.950 131.758Q1123.374 120.028 1117.992 110.736Q1112.610 101.444 1104.054 96.016Q1095.498 90.588 1083.446 90.588L1083.446 90.588L1066.058 90.588Z" />
    <path d="M393.972 151.000 L398.972 156.000 L393.972 161.000 L388.972 156.000 Z" />
  </g>
  <line x1="916.122" y1="156.000" x2="1006.126" y2="156.000" stroke="#111" stroke-width="2" stroke-linecap="round" />
</svg>
